<?xml version="1.0" encoding="utf-8"?>
<!-- Generator: Adobe Illustrator 28.2.0, SVG Export Plug-In . SVG Version: 6.00 Build 0)  -->
<svg version="1.1" id="Layer_1" xmlns="http://www.w3.org/2000/svg" xmlns:xlink="http://www.w3.org/1999/xlink" x="0px" y="0px"
	 viewBox="0 0 595.3 519.9" style="enable-background:new 0 0 595.3 519.9;" xml:space="preserve">
<style type="text/css">
	.st0{enable-background:new    ;}
	.st1{fill:#1D1D1B;}
	.st2{fill:none;stroke:#1D1D1B;stroke-miterlimit:10;}
</style>
<g>
	<g class="st0">
		<path class="st1" d="M95.2,246.8l0.7-8.2l2.4,0.2l-0.7,8.2L95.2,246.8z"/>
	</g>
	<g class="st0">
		<path class="st1" d="M92,206c-1.1,0.5-2,1.2-2.7,2.1c-0.7,0.9-1.2,1.9-1.4,3.1c-0.3,1.3-0.3,2.5,0,3.7s0.8,2.3,1.5,3.3
			c0.7,1,1.6,1.8,2.7,2.5c1.1,0.7,2.2,1.2,3.5,1.5c1.4,0.3,2.7,0.4,3.9,0.2c1.3-0.2,2.4-0.6,3.5-1.1c1-0.6,1.9-1.4,2.7-2.3
			c0.7-1,1.3-2.1,1.6-3.4c0.3-1.4,0.3-2.8,0-4c-0.3-1.2-0.9-2.4-1.8-3.5l2.2-1.7c1.2,1.4,1.9,2.9,2.2,4.5c0.3,1.6,0.3,3.4-0.1,5.2
			c-0.4,1.7-1,3.1-2,4.5c-0.9,1.3-2.1,2.4-3.4,3.2c-1.3,0.8-2.8,1.4-4.4,1.6c-1.6,0.3-3.3,0.2-5.1-0.2c-1.7-0.4-3.2-1-4.6-1.9
			c-1.4-0.9-2.5-2-3.3-3.3c-0.9-1.3-1.4-2.7-1.8-4.3c-0.3-1.6-0.3-3.2,0.1-5c0.4-1.6,1-3,1.9-4.4c0.9-1.3,2.1-2.3,3.6-3L92,206z"/>
	</g>
	<g class="st0">
		<path class="st1" d="M89.7,196.5l0.9-2.7l20.1,6.8l3.5-10.3l2.5,0.8l-4.4,13L89.7,196.5z"/>
	</g>
	<g class="st0">
		<path class="st1" d="M116.7,168.7c1.2,0.5,2.2,1.2,3.2,2c0.9,0.8,1.6,1.7,2.2,2.7c0.5,1,0.8,2.1,0.8,3.4s-0.3,2.6-1,4.1
			c-0.7,1.5-1.5,2.6-2.4,3.5c-1,0.8-2,1.4-3.1,1.6c-1.1,0.3-2.2,0.3-3.4,0.1c-1.2-0.2-2.4-0.6-3.6-1.1l-13.4-6.1l1.2-2.6l13,5.9
			c0.9,0.4,1.8,0.7,2.7,0.9c0.9,0.2,1.8,0.2,2.6,0.1s1.6-0.5,2.3-1c0.7-0.5,1.3-1.4,1.8-2.4c0.5-1.1,0.7-2.1,0.7-3
			c-0.1-0.9-0.3-1.7-0.7-2.4c-0.4-0.7-1-1.4-1.8-1.9c-0.7-0.6-1.5-1-2.4-1.4l-13-5.9l1.2-2.6L116.7,168.7z"/>
	</g>
	<g class="st0">
		<path class="st1" d="M107.1,155.6l3.7-6.2c0.5-0.8,1.1-1.6,1.8-2.3c0.7-0.7,1.4-1.3,2.2-1.7c0.8-0.4,1.6-0.6,2.5-0.6
			c0.9,0,1.8,0.3,2.7,0.8c1.2,0.7,2,1.6,2.4,2.7c0.4,1.1,0.4,2.3,0.1,3.6l0.1,0c0.5-0.6,1-1.1,1.6-1.5s1.3-0.7,2-0.8
			c0.7-0.1,1.4-0.2,2.1,0c0.7,0.1,1.4,0.4,2.1,0.8c1.1,0.7,1.9,1.5,2.4,2.4c0.4,0.9,0.7,1.9,0.6,2.9c0,1-0.2,2.1-0.6,3.1
			c-0.4,1.1-0.9,2.1-1.4,3l-3.7,6.1L107.1,155.6z M117.2,158.4l2-3.3c0.3-0.6,0.6-1.2,0.9-1.8c0.3-0.6,0.4-1.2,0.4-1.8
			c0-0.6-0.1-1.1-0.4-1.7c-0.3-0.5-0.8-1-1.5-1.4c-0.6-0.4-1.2-0.6-1.8-0.6c-0.5,0-1.1,0.2-1.5,0.4c-0.5,0.3-0.9,0.7-1.3,1.1
			c-0.4,0.5-0.8,1-1.1,1.5l-2.2,3.6L117.2,158.4z M126.7,164.1l2.5-4.1c0.4-0.6,0.7-1.2,0.9-1.9c0.2-0.7,0.3-1.3,0.3-1.9
			c0-0.6-0.1-1.2-0.4-1.8c-0.3-0.6-0.7-1-1.4-1.4c-0.7-0.4-1.4-0.6-2-0.7c-0.6,0-1.3,0.1-1.8,0.4c-0.6,0.3-1.1,0.7-1.5,1.2
			c-0.5,0.5-0.9,1.1-1.3,1.7l-2.5,4.2L126.7,164.1z"/>
	</g>
	<g class="st0">
		<path class="st1" d="M125.4,127.9l9.4-11.4l2,1.7l-7.6,9.2l6.1,5l7.1-8.6l2,1.7l-7.1,8.6l8.3,6.8l-1.8,2.2L125.4,127.9z"/>
	</g>
	<g class="st0">
		<path class="st1" d="M161.8,110.2c0.9,0.9,1.7,1.9,2.2,3c0.6,1.1,0.9,2.2,1,3.3c0.1,1.1-0.1,2.3-0.5,3.5s-1.3,2.3-2.4,3.5
			s-2.3,1.9-3.5,2.4c-1.2,0.4-2.3,0.6-3.5,0.4c-1.1-0.1-2.2-0.5-3.3-1.1c-1-0.6-2-1.4-2.9-2.3l-10.3-10.5l2-2l10,10.2
			c0.7,0.7,1.4,1.3,2.2,1.8c0.8,0.5,1.6,0.8,2.4,1c0.8,0.2,1.7,0.1,2.5-0.1c0.9-0.3,1.7-0.8,2.6-1.6s1.4-1.7,1.7-2.5
			c0.3-0.8,0.3-1.7,0.2-2.5c-0.1-0.8-0.5-1.6-0.9-2.4c-0.5-0.8-1.1-1.5-1.7-2.2l-10-10.2l2-2L161.8,110.2z"/>
	</g>
	<g class="st0">
		<path class="st1" d="M171.6,86.8l-6.2,4.9l13.1,16.7l-2.2,1.7l-13.1-16.7l-6.2,4.9l-1.6-2.1L170,84.8L171.6,86.8z"/>
	</g>
	<g class="st0">
		<path class="st1" d="M174.3,81.8l6.1-3.9c0.8-0.5,1.7-1,2.6-1.3s1.8-0.5,2.7-0.5c0.9,0,1.7,0.2,2.5,0.6c0.8,0.4,1.5,1,2.1,2
			c0.7,1.2,1,2.3,0.9,3.5c-0.2,1.2-0.7,2.3-1.5,3.3l0,0.1c0.7-0.4,1.4-0.6,2.1-0.6c0.7-0.1,1.4,0,2.1,0.1c0.7,0.2,1.3,0.5,1.9,0.9
			c0.6,0.4,1.1,1,1.5,1.6c0.7,1.1,1.1,2.2,1,3.2c0,1-0.3,2-0.7,2.9c-0.5,0.9-1.1,1.7-2,2.5c-0.8,0.8-1.7,1.4-2.6,2l-6,3.8
			L174.3,81.8z M182.1,88.9l3.3-2.1c0.6-0.4,1.1-0.7,1.6-1.2s0.9-0.9,1.2-1.4c0.3-0.5,0.4-1.1,0.4-1.7c0-0.6-0.2-1.2-0.7-1.9
			c-0.4-0.6-0.8-1.1-1.3-1.3c-0.5-0.2-1-0.3-1.6-0.3c-0.6,0-1.1,0.2-1.7,0.4c-0.6,0.2-1.1,0.5-1.7,0.9l-3.6,2.2L182.1,88.9z
			 M188,98.2l4-2.6c0.6-0.4,1.1-0.8,1.6-1.3c0.5-0.5,0.9-1,1.2-1.6c0.3-0.6,0.4-1.2,0.4-1.8c0-0.6-0.2-1.3-0.6-1.9
			c-0.4-0.7-1-1.2-1.5-1.5c-0.6-0.3-1.2-0.5-1.8-0.5c-0.6,0-1.3,0.1-1.9,0.4c-0.7,0.3-1.3,0.6-1.9,1l-4.1,2.6L188,98.2z"/>
	</g>
	<g class="st0">
		<path class="st1" d="M214.7,87c-1.6,0.8-3.3,1.2-4.9,1.3c-1.6,0.1-3.2-0.2-4.7-0.7c-1.5-0.5-2.8-1.4-4-2.5c-1.2-1.1-2.2-2.5-3-4.1
			s-1.2-3.3-1.3-4.9c-0.1-1.7,0.1-3.2,0.7-4.7c0.5-1.5,1.4-2.8,2.5-4c1.1-1.2,2.5-2.2,4.1-3c1.6-0.8,3.3-1.2,4.9-1.3
			s3.2,0.2,4.7,0.7c1.5,0.5,2.8,1.4,4,2.5c1.2,1.1,2.2,2.5,3,4.1s1.2,3.3,1.3,4.9c0.1,1.7-0.1,3.2-0.7,4.7c-0.5,1.5-1.4,2.8-2.5,4
			C217.7,85.2,216.3,86.2,214.7,87z M213.6,84.6c1.3-0.6,2.3-1.4,3.1-2.3c0.8-1,1.4-2,1.8-3.2c0.4-1.2,0.5-2.4,0.4-3.7
			c-0.1-1.3-0.4-2.5-1-3.8c-0.6-1.2-1.3-2.3-2.3-3.2c-0.9-0.9-2-1.6-3.1-2c-1.1-0.5-2.3-0.7-3.6-0.7c-1.3,0-2.5,0.3-3.8,0.9
			s-2.3,1.4-3.1,2.3c-0.8,1-1.4,2-1.8,3.2c-0.4,1.2-0.5,2.4-0.4,3.7c0.1,1.3,0.4,2.5,1,3.8c0.6,1.2,1.3,2.3,2.3,3.2
			c0.9,0.9,2,1.6,3.1,2c1.1,0.5,2.3,0.7,3.6,0.7S212.3,85.2,213.6,84.6z"/>
	</g>
	<g class="st0">
		<path class="st1" d="M221.9,57.5l2.7-0.9l6.8,20.1l10.3-3.5l0.8,2.5l-13,4.4L221.9,57.5z"/>
	</g>
	<g class="st0">
		<path class="st1" d="M249.5,49.4l7.2-1.3c1-0.2,1.9-0.2,2.9-0.2c1,0,1.8,0.2,2.7,0.5c0.8,0.3,1.5,0.8,2.1,1.4
			c0.6,0.6,1,1.5,1.2,2.6c0.2,1.4,0.1,2.6-0.5,3.6c-0.6,1-1.5,1.8-2.7,2.4l0,0.1c0.8-0.1,1.5,0,2.2,0.2s1.3,0.5,1.9,0.9
			c0.6,0.4,1,0.9,1.4,1.6c0.4,0.6,0.7,1.3,0.8,2.1c0.2,1.3,0.2,2.4-0.2,3.4c-0.4,0.9-1,1.7-1.8,2.4c-0.8,0.7-1.7,1.2-2.8,1.6
			c-1.1,0.4-2.1,0.7-3.2,0.9l-7,1.3L249.5,49.4z M254.1,58.8l3.8-0.7c0.7-0.1,1.3-0.3,1.9-0.5c0.6-0.2,1.1-0.5,1.6-0.9
			c0.5-0.4,0.8-0.8,1-1.4c0.2-0.6,0.3-1.2,0.1-2.1c-0.1-0.7-0.4-1.3-0.8-1.7s-0.8-0.7-1.3-0.9c-0.5-0.2-1.1-0.3-1.7-0.3
			c-0.6,0-1.2,0.1-1.9,0.2l-4.1,0.8L254.1,58.8z M256,69.7l4.7-0.9c0.7-0.1,1.3-0.3,2-0.6c0.6-0.3,1.2-0.6,1.7-1
			c0.5-0.4,0.8-0.9,1.1-1.5c0.2-0.6,0.3-1.2,0.2-2c-0.1-0.8-0.4-1.5-0.9-2c-0.4-0.5-0.9-0.9-1.5-1.1c-0.6-0.2-1.2-0.4-1.9-0.4
			s-1.4,0-2.1,0.2l-4.8,0.9L256,69.7z"/>
	</g>
	<g class="st0">
		<path class="st1" d="M285,69.3c-1.8,0.1-3.5-0.1-5-0.7c-1.5-0.5-2.9-1.3-4.1-2.4c-1.2-1-2.1-2.3-2.8-3.8c-0.7-1.5-1.1-3.1-1.2-4.9
			s0.1-3.5,0.6-5c0.5-1.6,1.3-2.9,2.4-4.1c1-1.2,2.3-2.1,3.8-2.8c1.5-0.7,3.1-1.1,4.9-1.2s3.5,0.1,5,0.7c1.5,0.5,2.9,1.3,4.1,2.4
			c1.2,1,2.1,2.3,2.8,3.8c0.7,1.5,1.1,3.1,1.2,4.9s-0.1,3.5-0.6,5c-0.5,1.6-1.3,2.9-2.4,4.1c-1,1.2-2.3,2.1-3.8,2.8
			C288.5,68.8,286.8,69.2,285,69.3z M284.9,66.7c1.4-0.1,2.6-0.4,3.8-1c1.1-0.6,2.1-1.3,2.9-2.3c0.8-0.9,1.4-2,1.8-3.2
			c0.4-1.2,0.6-2.5,0.5-3.9c-0.1-1.4-0.4-2.6-0.9-3.8c-0.5-1.2-1.2-2.2-2.1-3c-0.9-0.9-1.9-1.5-3.1-2c-1.2-0.5-2.5-0.6-3.9-0.6
			s-2.6,0.4-3.8,1c-1.1,0.6-2.1,1.3-2.9,2.3s-1.4,2-1.8,3.2c-0.4,1.2-0.6,2.5-0.5,3.9s0.4,2.6,0.9,3.8c0.5,1.2,1.2,2.2,2.1,3
			c0.9,0.9,1.9,1.5,3.1,2C282.2,66.5,283.5,66.7,284.9,66.7z"/>
	</g>
	<g class="st0">
		<path class="st1" d="M318.6,48.2l-7.9-0.5l-1.3,21.2l-2.8-0.2l1.3-21.2L300,47l0.2-2.6l18.5,1.2L318.6,48.2z"/>
	</g>
	<g class="st0">
		<path class="st1" d="M330.7,72.2c-1.8-0.3-3.4-0.9-4.7-1.8c-1.4-0.9-2.5-2-3.4-3.3s-1.5-2.8-1.8-4.4c-0.3-1.6-0.3-3.3,0-5.1
			c0.3-1.8,0.9-3.3,1.8-4.7c0.9-1.4,2-2.5,3.3-3.4c1.3-0.9,2.7-1.5,4.3-1.8c1.6-0.3,3.3-0.3,5.1,0c1.8,0.3,3.4,0.9,4.7,1.8
			c1.4,0.9,2.5,2,3.4,3.3c0.9,1.3,1.5,2.8,1.8,4.4c0.3,1.6,0.3,3.3,0,5.1c-0.3,1.8-0.9,3.3-1.8,4.7c-0.9,1.4-2,2.5-3.3,3.4
			c-1.3,0.9-2.7,1.5-4.3,1.8C334.1,72.5,332.4,72.5,330.7,72.2z M331.1,69.6c1.4,0.3,2.7,0.2,3.9-0.1c1.2-0.3,2.3-0.8,3.3-1.5
			c1-0.7,1.8-1.6,2.5-2.7c0.7-1.1,1.1-2.3,1.4-3.7c0.2-1.3,0.3-2.6,0-3.9c-0.2-1.3-0.7-2.4-1.3-3.4c-0.7-1-1.5-1.9-2.5-2.6
			c-1-0.7-2.2-1.2-3.6-1.5c-1.4-0.3-2.7-0.2-3.9,0.1c-1.2,0.3-2.3,0.8-3.3,1.5c-1,0.7-1.8,1.6-2.5,2.7s-1.1,2.3-1.4,3.7
			c-0.2,1.3-0.3,2.7,0,3.9c0.2,1.3,0.7,2.4,1.3,3.4c0.7,1,1.5,1.9,2.5,2.6C328.6,68.9,329.8,69.3,331.1,69.6z"/>
	</g>
	<g class="st0">
		<path class="st1" d="M354.1,52.3l3.4,1.1l6.8,23.1l0.1,0l6.2-18.8l2.7,0.9l-7.5,22.6l-3.4-1.1l-6.8-23.1l-0.1,0l-6.2,18.8
			l-2.7-0.9L354.1,52.3z"/>
	</g>
	<g class="st0">
		<path class="st1" d="M389.2,70.5c-0.1-0.9-0.4-1.7-1-2.3c-0.6-0.6-1.2-1.2-2-1.5c-0.6-0.3-1.2-0.5-1.8-0.6c-0.6-0.1-1.2-0.1-1.8,0
			c-0.6,0.1-1.1,0.3-1.6,0.6c-0.5,0.3-0.9,0.8-1.2,1.5c-0.2,0.5-0.4,1-0.4,1.4c0,0.4,0.1,0.9,0.3,1.4c0.2,0.5,0.5,1,1,1.5
			c0.5,0.5,1.1,1.1,1.8,1.8c0.7,0.7,1.4,1.3,2,2s1.2,1.4,1.5,2.1c0.4,0.7,0.6,1.6,0.6,2.4c0,0.9-0.2,1.8-0.7,2.9
			c-0.5,1.1-1.2,1.9-1.9,2.5c-0.8,0.6-1.7,1-2.6,1.2c-0.9,0.2-1.9,0.2-3,0c-1-0.2-2-0.5-3-0.9c-0.6-0.3-1.2-0.6-1.8-1
			c-0.6-0.4-1.1-0.9-1.6-1.4s-0.9-1.1-1.2-1.7c-0.3-0.6-0.6-1.3-0.7-2l3-0.8c0.1,1,0.5,1.9,1.1,2.7s1.4,1.4,2.4,1.8
			c0.5,0.3,1.1,0.4,1.8,0.5c0.6,0.1,1.2,0.1,1.8,0c0.6-0.1,1.1-0.3,1.6-0.7c0.5-0.3,0.9-0.8,1.2-1.4c0.3-0.7,0.5-1.3,0.4-1.8
			c0-0.5-0.2-1-0.5-1.6c-0.3-0.5-0.8-1.1-1.4-1.6c-0.6-0.6-1.3-1.2-2.1-2c-0.7-0.6-1.2-1.2-1.7-1.8s-0.9-1.3-1.2-1.9
			s-0.4-1.4-0.4-2.2c0-0.8,0.2-1.6,0.7-2.5c0.5-1,1.1-1.8,1.9-2.4c0.8-0.6,1.6-1,2.5-1.2c0.9-0.2,1.9-0.2,2.9-0.1
			c1,0.1,2,0.4,2.9,0.9c1.2,0.6,2.2,1.3,3.1,2.1s1.4,1.9,1.8,3.2L389.2,70.5z"/>
	</g>
	<g class="st0">
		<path class="st1" d="M408,76l6.1,4c0.8,0.5,1.6,1.2,2.2,1.8c0.7,0.7,1.2,1.4,1.6,2.2s0.5,1.6,0.5,2.5s-0.3,1.8-0.9,2.7
			c-0.8,1.2-1.7,1.9-2.8,2.3c-1.1,0.3-2.3,0.3-3.6-0.1l0,0.1c0.6,0.5,1.1,1,1.5,1.7s0.6,1.3,0.7,2c0.1,0.7,0.1,1.4-0.1,2.1
			c-0.2,0.7-0.4,1.4-0.9,2.1c-0.7,1.1-1.6,1.9-2.5,2.3c-0.9,0.4-1.9,0.6-2.9,0.5c-1-0.1-2-0.3-3.1-0.8c-1-0.4-2-1-2.9-1.6l-5.9-3.9
			L408,76z M398.7,95.2l4,2.6c0.6,0.4,1.2,0.7,1.8,1s1.3,0.4,1.9,0.4c0.6,0,1.2-0.1,1.8-0.3c0.6-0.3,1.1-0.7,1.5-1.3
			c0.5-0.7,0.7-1.4,0.7-2s-0.1-1.3-0.3-1.8c-0.3-0.6-0.6-1.1-1.1-1.6s-1-0.9-1.6-1.3l-4-2.7L398.7,95.2z M404.8,85.9l3.3,2.2
			c0.6,0.4,1.1,0.7,1.7,1c0.6,0.3,1.2,0.4,1.8,0.5c0.6,0.1,1.1,0,1.7-0.3c0.5-0.2,1-0.7,1.5-1.4c0.4-0.6,0.6-1.2,0.6-1.7
			c0-0.5-0.1-1.1-0.4-1.6s-0.6-0.9-1.1-1.4s-1-0.8-1.5-1.2l-3.5-2.3L404.8,85.9z"/>
	</g>
	<g class="st0">
		<path class="st1" d="M433.1,94.1l2,1.7l-7.5,24.8l-2.5-2.1l1.9-6l-9.1-7.7l-5.6,2.9l-2.4-2.1L433.1,94.1z M431.8,97.7L431.8,97.7
			l-11.4,5.8l7.5,6.2L431.8,97.7z"/>
	</g>
	<g class="st0">
		<path class="st1" d="M446.6,106l4.2,4.4c0.8,0.8,1.5,1.7,2.2,2.6c0.7,0.9,1.2,1.8,1.5,2.8c0.3,1,0.3,1.9,0.1,2.9c-0.2,1-0.9,2-2,3
			c-1.3,1.2-2.7,1.8-4.2,1.8c-1.5,0-3-0.6-4.5-1.8l-3.3,12.5l-2.4-2.5l3.3-12.1l-2.5-2.6l-7.7,7.4l-2-2L446.6,106z M440.9,115.3
			l1.7,1.8c0.5,0.6,1.1,1.1,1.7,1.7c0.6,0.6,1.3,1,1.9,1.4c0.7,0.3,1.3,0.5,2,0.5c0.7,0,1.4-0.4,2.1-1.1c0.6-0.6,1-1.2,1.1-1.8
			c0.1-0.6,0.1-1.2-0.1-1.8c-0.2-0.6-0.5-1.2-0.9-1.7c-0.4-0.6-0.9-1.1-1.3-1.6l-2.7-2.9L440.9,115.3z"/>
	</g>
	<g class="st0">
		<path class="st1" d="M468,138.9c0.3-1.2,0.4-2.3,0.1-3.4c-0.3-1.1-0.7-2.2-1.4-3.1c-0.8-1.1-1.8-1.9-2.9-2.4
			c-1.1-0.6-2.3-0.9-3.5-1c-1.2-0.1-2.4,0-3.7,0.4c-1.2,0.4-2.4,0.9-3.4,1.7c-1.1,0.8-2,1.8-2.7,2.9c-0.7,1.1-1.1,2.2-1.4,3.4
			c-0.2,1.2-0.2,2.4,0.1,3.6c0.3,1.2,0.8,2.3,1.6,3.4c0.9,1.2,1.9,2,3,2.6c1.1,0.6,2.4,0.9,3.8,0.9l-0.1,2.8c-1.8,0-3.4-0.4-4.9-1.2
			s-2.8-2-3.9-3.5c-1-1.4-1.7-2.8-2.1-4.4c-0.4-1.6-0.5-3.1-0.3-4.6c0.2-1.5,0.8-3,1.6-4.4c0.8-1.4,2-2.7,3.4-3.8
			c1.4-1.1,2.9-1.8,4.4-2.3s3.1-0.6,4.7-0.4c1.5,0.2,3,0.7,4.4,1.4c1.4,0.8,2.7,1.9,3.7,3.3c1,1.3,1.7,2.7,2.1,4.2
			c0.4,1.5,0.4,3.1,0,4.7L468,138.9z"/>
	</g>
	<g class="st0">
		<path class="st1" d="M477,143.4l7.7,12.8l-2.3,1.3l-6.2-10.4l-6.4,3.8l5.8,9.7l-2.3,1.3l-5.8-9.7l-7.3,4.4l6.6,10.9l-2.3,1.3
			l-8-13.4L477,143.4z"/>
	</g>
	<g class="st0">
		<path class="st1" d="M487.7,162.1l1.2,2.6l-19.1,9.1l4.7,9.8l-2.4,1.1l-5.9-12.4L487.7,162.1z"/>
	</g>
	<g class="st0">
		<path class="st1" d="M476.3,197.7c-0.6-1.7-0.8-3.4-0.7-5c0.1-1.6,0.5-3.2,1.2-4.6c0.7-1.4,1.7-2.7,2.9-3.7s2.7-1.9,4.4-2.5
			c1.7-0.6,3.4-0.8,5-0.8c1.7,0.1,3.2,0.5,4.6,1.2c1.4,0.7,2.7,1.6,3.7,2.9s1.9,2.7,2.5,4.4c0.6,1.7,0.8,3.4,0.7,5
			c-0.1,1.6-0.5,3.2-1.2,4.6c-0.7,1.4-1.7,2.7-2.9,3.7c-1.3,1.1-2.7,1.9-4.4,2.5c-1.7,0.6-3.4,0.8-5,0.8c-1.7-0.1-3.2-0.5-4.6-1.2
			c-1.4-0.7-2.7-1.6-3.7-2.9C477.7,200.9,476.9,199.4,476.3,197.7z M478.8,196.8c0.5,1.3,1.1,2.4,2,3.4c0.9,0.9,1.9,1.6,3,2.1
			c1.1,0.5,2.3,0.8,3.6,0.8c1.3,0,2.6-0.2,3.9-0.6c1.3-0.4,2.4-1.1,3.4-1.9c1-0.8,1.8-1.8,2.3-2.9c0.6-1.1,0.9-2.2,1-3.5
			c0.1-1.3-0.1-2.5-0.5-3.9c-0.5-1.3-1.1-2.4-2-3.4c-0.9-0.9-1.9-1.6-3-2.1c-1.1-0.5-2.3-0.8-3.6-0.8s-2.6,0.2-3.9,0.6
			c-1.3,0.4-2.4,1.1-3.4,1.9c-1,0.8-1.8,1.8-2.3,2.9s-0.9,2.2-1,3.5C478.1,194.2,478.3,195.5,478.8,196.8z"/>
	</g>
	<g class="st0">
		<path class="st1" d="M505.1,208.4l0.7,3.5L489,229.2l0,0.1l19.4-3.8l0.5,2.8l-23.4,4.6l-0.7-3.5l16.8-17.3l0-0.1l-19.4,3.8
			l-0.5-2.8L505.1,208.4z"/>
	</g>
	<g class="st0">
		<path class="st1" d="M510.5,244.1l0.2,2.7l-23.1,11.7l-0.2-3.3l5.7-2.8l-0.8-11.9l-6-2.1l-0.2-3.2L510.5,244.1z M507,245.6
			L507,245.6l-12-4.2l0.7,9.7L507,245.6z"/>
	</g>
	<g class="st0">
		<path class="st1" d="M496.4,269.4l-0.5,8.2l-2.4-0.2l0.5-8.2L496.4,269.4z"/>
	</g>
	<g class="st0">
		<path class="st1" d="M500.3,310.1c1.1-0.5,2-1.2,2.7-2.2c0.7-0.9,1.1-2,1.4-3.1c0.3-1.3,0.2-2.5-0.1-3.7c-0.3-1.2-0.8-2.3-1.5-3.3
			s-1.6-1.8-2.7-2.5c-1.1-0.7-2.3-1.2-3.5-1.4c-1.4-0.3-2.7-0.3-3.9-0.1c-1.3,0.2-2.4,0.6-3.4,1.2c-1,0.6-1.9,1.4-2.6,2.4
			c-0.7,1-1.2,2.1-1.5,3.5c-0.3,1.4-0.3,2.8,0.1,4c0.3,1.2,0.9,2.4,1.8,3.4l-2.2,1.7c-1.2-1.3-2-2.8-2.3-4.4c-0.4-1.6-0.3-3.4,0-5.2
			c0.3-1.7,1-3.2,1.9-4.5c0.9-1.3,2-2.4,3.3-3.3c1.3-0.8,2.8-1.4,4.4-1.7c1.6-0.3,3.3-0.3,5.1,0.1c1.7,0.4,3.3,1,4.6,1.9
			c1.4,0.9,2.5,2,3.4,3.3c0.9,1.3,1.5,2.7,1.8,4.3s0.3,3.2,0,5c-0.3,1.6-0.9,3-1.8,4.4c-0.9,1.3-2.1,2.4-3.6,3.1L500.3,310.1z"/>
	</g>
	<g class="st0">
		<path class="st1" d="M502.8,319.6l-0.8,2.7l-20.2-6.4l-3.3,10.4l-2.5-0.8l4.1-13.1L502.8,319.6z"/>
	</g>
	<g class="st0">
		<path class="st1" d="M476.3,347.9c-1.2-0.5-2.3-1.2-3.2-1.9c-0.9-0.8-1.7-1.6-2.2-2.6c-0.5-1-0.8-2.1-0.8-3.4
			c0-1.3,0.3-2.6,0.9-4.1c0.7-1.5,1.4-2.7,2.4-3.5c0.9-0.8,2-1.4,3-1.7c1.1-0.3,2.2-0.4,3.4-0.2c1.2,0.2,2.4,0.5,3.6,1l13.5,5.9
			l-1.1,2.6l-13.2-5.7c-0.9-0.4-1.8-0.7-2.7-0.8c-0.9-0.2-1.8-0.2-2.6,0c-0.8,0.2-1.6,0.5-2.3,1.1c-0.7,0.6-1.3,1.4-1.7,2.5
			s-0.7,2.1-0.6,3c0.1,0.9,0.3,1.7,0.8,2.4c0.5,0.7,1,1.3,1.8,1.9c0.7,0.5,1.6,1,2.4,1.4l13.2,5.7l-1.1,2.6L476.3,347.9z"/>
	</g>
	<g class="st0">
		<path class="st1" d="M486.2,360.8l-3.6,6.3c-0.5,0.9-1.1,1.6-1.7,2.4c-0.6,0.7-1.4,1.3-2.1,1.7c-0.8,0.4-1.6,0.6-2.5,0.7
			c-0.9,0-1.8-0.2-2.7-0.8c-1.2-0.7-2-1.6-2.4-2.7c-0.4-1.1-0.5-2.3-0.2-3.6l-0.1,0c-0.4,0.6-1,1.1-1.6,1.6c-0.6,0.4-1.3,0.7-2,0.9
			c-0.7,0.2-1.4,0.2-2.1,0.1c-0.7-0.1-1.4-0.4-2.1-0.8c-1.1-0.7-2-1.4-2.4-2.3s-0.7-1.9-0.7-2.9s0.2-2.1,0.6-3.1s0.8-2.1,1.4-3
			l3.5-6.2L486.2,360.8z M466.5,352.6l-2.4,4.1c-0.3,0.6-0.6,1.2-0.8,1.9c-0.2,0.7-0.3,1.3-0.3,2c0,0.6,0.2,1.2,0.4,1.8
			c0.3,0.6,0.8,1,1.4,1.4c0.7,0.4,1.4,0.6,2.1,0.6s1.2-0.1,1.8-0.4c0.6-0.3,1.1-0.7,1.5-1.2c0.5-0.5,0.9-1.1,1.2-1.7l2.4-4.2
			L466.5,352.6z M476.1,358.2l-1.9,3.4c-0.3,0.6-0.6,1.2-0.9,1.8c-0.2,0.6-0.4,1.2-0.4,1.8c0,0.6,0.1,1.1,0.4,1.7
			c0.3,0.5,0.8,1,1.5,1.4c0.6,0.4,1.2,0.5,1.8,0.5c0.5,0,1.1-0.2,1.5-0.5s0.9-0.7,1.3-1.2c0.4-0.5,0.8-1,1.1-1.5l2.1-3.6
			L476.1,358.2z"/>
	</g>
	<g class="st0">
		<path class="st1" d="M468.4,388.8l-9.2,11.6l-2.1-1.6l7.4-9.4l-6.2-4.9l-6.9,8.7l-2.1-1.6l6.9-8.7l-8.4-6.7l1.8-2.2L468.4,388.8z"
			/>
	</g>
	<g class="st0">
		<path class="st1" d="M432.3,407.2c-0.9-0.9-1.7-1.9-2.3-2.9c-0.6-1-1-2.1-1.1-3.3c-0.1-1.1,0-2.3,0.4-3.5c0.4-1.2,1.2-2.4,2.4-3.5
			c1.1-1.2,2.3-2,3.5-2.4c1.2-0.4,2.3-0.6,3.5-0.5c1.1,0.1,2.2,0.5,3.3,1.1c1.1,0.6,2.1,1.3,3,2.3l10.5,10.3l-2,2l-10.2-10.1
			c-0.7-0.7-1.4-1.3-2.2-1.7c-0.8-0.5-1.6-0.8-2.4-1c-0.8-0.2-1.7-0.1-2.5,0.2c-0.8,0.3-1.7,0.8-2.5,1.7c-0.8,0.8-1.4,1.7-1.6,2.5
			c-0.3,0.9-0.3,1.7-0.1,2.5c0.2,0.8,0.5,1.6,1,2.4c0.5,0.8,1.1,1.5,1.8,2.2l10.2,10.1l-2,2L432.3,407.2z"/>
	</g>
	<g class="st0">
		<path class="st1" d="M422.9,430.7l6.1-5l-13.4-16.4l2.2-1.8l13.4,16.4l6.1-5l1.7,2l-14.4,11.7L422.9,430.7z"/>
	</g>
	<g class="st0">
		<path class="st1" d="M420.4,435.8l-6.1,4c-0.8,0.5-1.7,1-2.6,1.3s-1.8,0.5-2.7,0.6c-0.9,0-1.7-0.1-2.5-0.5c-0.8-0.4-1.5-1-2.1-1.9
			c-0.8-1.2-1.1-2.3-1-3.5c0.1-1.2,0.6-2.3,1.5-3.3l0-0.1c-0.7,0.4-1.4,0.6-2.1,0.7c-0.7,0.1-1.4,0.1-2.1-0.1
			c-0.7-0.2-1.3-0.5-1.9-0.9c-0.6-0.4-1.1-1-1.5-1.6c-0.7-1.1-1.1-2.2-1.1-3.2c0-1,0.2-2,0.7-2.9c0.5-0.9,1.1-1.8,1.9-2.5
			s1.7-1.5,2.6-2.1l5.9-3.9L420.4,435.8z M406.3,419.6l-4,2.6c-0.6,0.4-1.1,0.8-1.6,1.3c-0.5,0.5-0.9,1-1.2,1.6
			c-0.3,0.6-0.4,1.2-0.4,1.8c0,0.6,0.2,1.3,0.6,1.9c0.5,0.7,1,1.2,1.6,1.5c0.6,0.3,1.2,0.4,1.8,0.4c0.6,0,1.3-0.1,1.9-0.4
			c0.6-0.3,1.3-0.6,1.9-1l4-2.7L406.3,419.6z M412.4,428.9l-3.3,2.1c-0.6,0.4-1.1,0.8-1.6,1.2c-0.5,0.4-0.9,0.9-1.1,1.4
			c-0.3,0.5-0.4,1.1-0.4,1.7s0.3,1.2,0.7,1.9c0.4,0.6,0.9,1,1.4,1.3c0.5,0.2,1,0.3,1.6,0.3c0.6,0,1.1-0.2,1.7-0.4
			c0.6-0.3,1.1-0.6,1.6-0.9l3.5-2.3L412.4,428.9z"/>
	</g>
	<g class="st0">
		<path class="st1" d="M379.9,431.4c1.6-0.8,3.3-1.3,4.9-1.4c1.6-0.1,3.2,0.1,4.7,0.6c1.5,0.5,2.8,1.3,4.1,2.4
			c1.2,1.1,2.2,2.5,3,4.1c0.8,1.6,1.3,3.2,1.4,4.9s-0.1,3.2-0.6,4.7c-0.5,1.5-1.3,2.8-2.4,4.1c-1.1,1.2-2.4,2.2-4.1,3.1
			c-1.6,0.8-3.3,1.3-4.9,1.4c-1.6,0.1-3.2-0.1-4.7-0.6c-1.5-0.5-2.8-1.3-4.1-2.4c-1.2-1.1-2.2-2.5-3-4.1c-0.8-1.6-1.3-3.2-1.4-4.9
			s0.1-3.2,0.6-4.7c0.5-1.5,1.3-2.8,2.4-4.1C376.9,433.2,378.3,432.2,379.9,431.4z M381,433.8c-1.2,0.6-2.3,1.4-3.1,2.4
			c-0.8,1-1.4,2-1.7,3.2c-0.3,1.2-0.5,2.4-0.3,3.7c0.1,1.3,0.5,2.5,1.1,3.8c0.6,1.2,1.4,2.3,2.3,3.2c0.9,0.9,2,1.5,3.1,2
			c1.1,0.4,2.3,0.6,3.6,0.6c1.3,0,2.5-0.4,3.8-1s2.3-1.4,3.1-2.4c0.8-1,1.4-2,1.7-3.2c0.3-1.2,0.5-2.4,0.3-3.7
			c-0.1-1.3-0.5-2.5-1.1-3.8s-1.4-2.3-2.3-3.2c-0.9-0.9-2-1.5-3.1-2c-1.1-0.4-2.3-0.6-3.6-0.6C383.5,432.8,382.3,433.1,381,433.8z"
			/>
	</g>
	<g class="st0">
		<path class="st1" d="M373.3,461l-2.7,1l-7.1-20l-10.3,3.7l-0.9-2.5l12.9-4.6L373.3,461z"/>
	</g>
	<g class="st0">
		<path class="st1" d="M345.8,469.6l-7.1,1.4c-1,0.2-1.9,0.3-2.9,0.3c-1,0-1.9-0.2-2.7-0.5c-0.8-0.3-1.5-0.8-2.1-1.4s-1-1.5-1.2-2.6
			c-0.3-1.4-0.1-2.6,0.4-3.6c0.6-1,1.4-1.9,2.6-2.5l0-0.1c-0.8,0.1-1.5,0-2.2-0.2c-0.7-0.2-1.4-0.5-1.9-0.9s-1.1-0.9-1.5-1.5
			c-0.4-0.6-0.7-1.3-0.8-2.1c-0.3-1.3-0.2-2.4,0.2-3.4c0.4-0.9,0.9-1.8,1.7-2.4c0.8-0.7,1.7-1.2,2.7-1.6c1-0.4,2.1-0.7,3.2-0.9
			l7-1.4L345.8,469.6z M338.8,449.4l-4.7,0.9c-0.7,0.1-1.3,0.3-2,0.6c-0.6,0.3-1.2,0.6-1.7,1.1c-0.5,0.4-0.8,0.9-1.1,1.5
			c-0.2,0.6-0.3,1.2-0.1,2c0.2,0.8,0.5,1.5,0.9,1.9c0.4,0.5,0.9,0.8,1.5,1.1c0.6,0.2,1.2,0.3,1.9,0.3c0.7,0,1.4-0.1,2.1-0.2l4.8-1
			L338.8,449.4z M341,460.3l-3.8,0.8c-0.7,0.1-1.3,0.3-1.9,0.5s-1.1,0.5-1.6,0.9c-0.5,0.4-0.8,0.8-1,1.4c-0.2,0.6-0.2,1.2-0.1,2.1
			c0.1,0.7,0.4,1.3,0.8,1.7c0.4,0.4,0.8,0.7,1.4,0.8c0.5,0.2,1.1,0.2,1.7,0.2c0.6,0,1.2-0.1,1.9-0.2l4.1-0.8L341,460.3z"/>
	</g>
	<g class="st0">
		<path class="st1" d="M309.9,450.4c1.8-0.1,3.5,0.1,5.1,0.6s2.9,1.3,4.1,2.3c1.2,1,2.1,2.3,2.9,3.8c0.7,1.5,1.2,3.1,1.3,4.9
			s-0.1,3.5-0.6,5.1c-0.5,1.6-1.3,3-2.3,4.1c-1,1.2-2.3,2.2-3.7,2.9c-1.5,0.7-3.1,1.2-4.9,1.3c-1.8,0.1-3.5-0.1-5.1-0.6
			c-1.6-0.5-2.9-1.3-4.1-2.3c-1.2-1-2.1-2.3-2.9-3.8c-0.7-1.5-1.2-3.1-1.3-4.9c-0.1-1.8,0.1-3.5,0.6-5.1c0.5-1.6,1.3-3,2.3-4.2
			c1-1.2,2.3-2.2,3.7-2.9C306.4,451,308.1,450.5,309.9,450.4z M310.1,453c-1.4,0.1-2.6,0.5-3.8,1.1s-2.1,1.4-2.8,2.3
			c-0.8,1-1.3,2-1.7,3.3c-0.4,1.2-0.5,2.5-0.4,3.9s0.4,2.6,1,3.8c0.5,1.2,1.3,2.2,2.2,3c0.9,0.8,1.9,1.5,3.1,1.9
			c1.2,0.4,2.5,0.6,3.9,0.5c1.4-0.1,2.6-0.5,3.8-1.1c1.1-0.6,2.1-1.4,2.8-2.3c0.8-1,1.3-2,1.7-3.3c0.4-1.2,0.5-2.5,0.4-3.9
			c-0.1-1.4-0.4-2.6-1-3.8c-0.5-1.2-1.3-2.2-2.2-3c-0.9-0.8-1.9-1.5-3.1-1.9C312.8,453.1,311.5,452.9,310.1,453z"/>
	</g>
	<g class="st0">
		<path class="st1" d="M276.7,472.1l7.9,0.4l1-21.2l2.8,0.1l-1,21.2l7.9,0.4l-0.1,2.6l-18.6-0.8L276.7,472.1z"/>
	</g>
	<g class="st0">
		<path class="st1" d="M264.2,448.3c1.8,0.3,3.4,0.9,4.8,1.7c1.4,0.9,2.5,1.9,3.5,3.2c0.9,1.3,1.5,2.7,1.9,4.3
			c0.4,1.6,0.4,3.3,0.1,5.1c-0.3,1.8-0.9,3.4-1.7,4.8s-1.9,2.6-3.2,3.5c-1.3,0.9-2.7,1.6-4.3,1.9c-1.6,0.4-3.3,0.4-5.1,0.1
			c-1.8-0.3-3.4-0.9-4.8-1.7c-1.4-0.9-2.5-1.9-3.5-3.2c-0.9-1.3-1.5-2.7-1.9-4.3c-0.4-1.6-0.4-3.3-0.1-5.1c0.3-1.8,0.9-3.4,1.7-4.8
			c0.9-1.4,1.9-2.6,3.2-3.5c1.3-0.9,2.7-1.6,4.3-1.9C260.7,448.1,262.4,448,264.2,448.3z M263.8,450.9c-1.4-0.2-2.7-0.2-3.9,0.1
			c-1.2,0.3-2.3,0.9-3.3,1.6c-1,0.7-1.8,1.7-2.4,2.8c-0.6,1.1-1.1,2.3-1.3,3.7c-0.2,1.3-0.2,2.7,0,3.9c0.3,1.3,0.7,2.4,1.4,3.4
			c0.7,1,1.5,1.9,2.6,2.6c1.1,0.7,2.3,1.2,3.6,1.4c1.4,0.2,2.7,0.2,3.9-0.1c1.2-0.3,2.3-0.9,3.3-1.6c1-0.8,1.8-1.7,2.4-2.8
			c0.7-1.1,1.1-2.3,1.3-3.7c0.2-1.3,0.2-2.7,0-3.9c-0.3-1.3-0.7-2.4-1.4-3.4c-0.7-1-1.5-1.9-2.6-2.6
			C266.4,451.6,265.1,451.1,263.8,450.9z"/>
	</g>
	<g class="st0">
		<path class="st1" d="M241.1,468.6l-3.4-1.1l-7.3-23l-0.1,0l-5.9,18.9l-2.7-0.8l7.1-22.7l3.4,1.1l7.3,23l0.1,0l5.9-18.9l2.7,0.8
			L241.1,468.6z"/>
	</g>
	<g class="st0">
		<path class="st1" d="M205.7,451.1c0.1,0.9,0.5,1.7,1,2.3c0.6,0.6,1.3,1.1,2,1.5c0.6,0.3,1.2,0.4,1.8,0.5c0.6,0.1,1.2,0.1,1.8,0
			c0.6-0.1,1.1-0.3,1.6-0.7c0.5-0.4,0.9-0.8,1.1-1.5c0.2-0.5,0.3-1,0.3-1.4c0-0.4-0.1-0.9-0.3-1.4c-0.2-0.5-0.6-1-1-1.5
			c-0.5-0.5-1.1-1.1-1.8-1.8c-0.7-0.6-1.4-1.3-2.1-1.9s-1.2-1.4-1.6-2.1c-0.4-0.7-0.6-1.5-0.7-2.4c0-0.9,0.2-1.8,0.6-2.9
			c0.5-1.1,1.1-1.9,1.9-2.5c0.8-0.6,1.6-1,2.6-1.2s1.9-0.2,3-0.1c1,0.2,2,0.4,3,0.9c0.6,0.3,1.2,0.6,1.8,1c0.6,0.4,1.1,0.8,1.6,1.3
			c0.5,0.5,0.9,1,1.2,1.7c0.3,0.6,0.6,1.3,0.7,2l-3,0.8c-0.1-1-0.5-1.9-1.2-2.7c-0.7-0.8-1.5-1.4-2.4-1.8c-0.6-0.2-1.1-0.4-1.8-0.5
			c-0.6-0.1-1.2-0.1-1.8,0c-0.6,0.1-1.1,0.3-1.6,0.7s-0.9,0.8-1.2,1.4c-0.3,0.7-0.4,1.3-0.4,1.8c0,0.5,0.2,1,0.6,1.6
			c0.3,0.5,0.8,1.1,1.4,1.6c0.6,0.6,1.3,1.2,2.1,2c0.7,0.6,1.3,1.2,1.8,1.8c0.5,0.6,0.9,1.3,1.2,1.9c0.3,0.7,0.4,1.4,0.4,2.2
			c0,0.8-0.2,1.6-0.6,2.5c-0.5,1-1.1,1.9-1.8,2.5c-0.8,0.6-1.6,1-2.5,1.2c-0.9,0.2-1.9,0.3-2.9,0.1c-1-0.1-2-0.4-2.9-0.8
			c-1.2-0.5-2.3-1.2-3.1-2.1c-0.8-0.8-1.5-1.9-1.8-3.2L205.7,451.1z"/>
	</g>
	<g class="st0">
		<path class="st1" d="M186.8,446l-6.1-3.9c-0.8-0.5-1.6-1.1-2.3-1.8s-1.2-1.4-1.6-2.2s-0.6-1.6-0.6-2.5c0-0.9,0.3-1.8,0.9-2.7
			c0.7-1.2,1.7-1.9,2.8-2.3c1.1-0.4,2.3-0.4,3.6,0l0-0.1c-0.6-0.5-1.1-1-1.5-1.6s-0.6-1.3-0.8-2c-0.1-0.7-0.1-1.4,0-2.1
			c0.1-0.7,0.4-1.4,0.8-2.1c0.7-1.1,1.5-1.9,2.4-2.3c0.9-0.4,1.9-0.6,2.9-0.6c1,0,2.1,0.3,3.1,0.7s2,0.9,3,1.5l6,3.8L186.8,446z
			 M189.8,435.9l-3.3-2.1c-0.6-0.4-1.1-0.7-1.7-0.9c-0.6-0.3-1.2-0.4-1.8-0.5c-0.6,0-1.1,0.1-1.7,0.3c-0.5,0.3-1,0.7-1.5,1.4
			c-0.4,0.6-0.6,1.2-0.6,1.8c0,0.5,0.1,1.1,0.4,1.5c0.3,0.5,0.6,0.9,1.1,1.4c0.5,0.4,1,0.8,1.5,1.1l3.6,2.3L189.8,435.9z
			 M195.7,426.6l-4-2.6c-0.6-0.4-1.2-0.7-1.9-0.9c-0.7-0.2-1.3-0.4-1.9-0.4c-0.6,0-1.2,0.1-1.8,0.4c-0.6,0.3-1.1,0.7-1.5,1.4
			c-0.4,0.7-0.7,1.4-0.7,2c0,0.6,0.1,1.3,0.4,1.8c0.3,0.6,0.6,1.1,1.2,1.6s1.1,0.9,1.7,1.3l4.1,2.6L195.7,426.6z"/>
	</g>
	<g class="st0">
		<path class="st1" d="M161.3,428.3l-2.1-1.7l7.1-24.9l2.6,2.1l-1.8,6.1l9.3,7.5l5.6-3l2.5,2L161.3,428.3z M162.6,424.7L162.6,424.7
			l11.3-6l-7.6-6.1L162.6,424.7z"/>
	</g>
	<g class="st0">
		<path class="st1" d="M147.7,416.6l-4.3-4.3c-0.8-0.8-1.6-1.7-2.3-2.6c-0.7-0.9-1.2-1.8-1.5-2.8c-0.3-1-0.4-1.9-0.1-2.9
			c0.2-1,0.9-2,1.9-3.1c1.2-1.2,2.6-1.8,4.1-1.9c1.5,0,3,0.5,4.5,1.7l3-12.5l2.4,2.5l-3.1,12.1l2.6,2.6l7.6-7.5l2,2L147.7,416.6z
			 M153.2,407.2l-1.8-1.8c-0.6-0.6-1.1-1.1-1.8-1.7c-0.6-0.6-1.3-1-1.9-1.3c-0.7-0.3-1.4-0.5-2.1-0.4c-0.7,0-1.4,0.4-2.1,1.1
			c-0.6,0.6-1,1.2-1.1,1.8c-0.1,0.6-0.1,1.2,0.1,1.8c0.2,0.6,0.5,1.2,0.9,1.7c0.4,0.5,0.9,1.1,1.4,1.6l2.8,2.8L153.2,407.2z"/>
	</g>
	<g class="st0">
		<path class="st1" d="M125.6,384.2c-0.3,1.2-0.3,2.3-0.1,3.4c0.3,1.1,0.8,2.1,1.5,3c0.8,1,1.8,1.8,2.9,2.4c1.1,0.5,2.3,0.8,3.5,0.9
			c1.2,0.1,2.4-0.1,3.7-0.5c1.2-0.4,2.3-1,3.4-1.8c1.1-0.9,2-1.8,2.6-2.9c0.7-1.1,1.1-2.2,1.3-3.4c0.2-1.2,0.2-2.4-0.1-3.5
			c-0.3-1.2-0.8-2.3-1.7-3.4c-0.9-1.1-1.9-2-3.1-2.5c-1.2-0.5-2.4-0.8-3.8-0.8l0.1-2.8c1.8,0,3.4,0.3,4.9,1.1c1.5,0.8,2.8,1.9,4,3.4
			c1.1,1.3,1.8,2.8,2.2,4.3c0.4,1.6,0.5,3.1,0.3,4.6c-0.2,1.5-0.7,3-1.5,4.5c-0.8,1.4-1.9,2.7-3.4,3.8c-1.4,1.1-2.8,1.9-4.4,2.3
			c-1.6,0.5-3.1,0.6-4.7,0.5c-1.5-0.2-3-0.6-4.5-1.4c-1.4-0.8-2.7-1.8-3.8-3.2c-1-1.3-1.7-2.7-2.2-4.2c-0.5-1.5-0.5-3.1-0.1-4.7
			L125.6,384.2z"/>
	</g>
	<g class="st0">
		<path class="st1" d="M116.6,379.8l-7.9-12.7l2.2-1.4l6.4,10.3l6.3-4l-6-9.6l2.2-1.4l6,9.6l7.2-4.5l-6.8-10.8l2.2-1.4l8.3,13.2
			L116.6,379.8z"/>
	</g>
	<g class="st0">
		<path class="st1" d="M105.5,361.2l-1.3-2.5l19-9.5l-4.9-9.7l2.3-1.2l6.2,12.3L105.5,361.2z"/>
	</g>
	<g class="st0">
		<path class="st1" d="M116.3,325.5c0.6,1.7,0.9,3.4,0.8,5c-0.1,1.6-0.4,3.2-1.1,4.6c-0.7,1.4-1.6,2.7-2.8,3.8
			c-1.2,1.1-2.7,2-4.4,2.6c-1.7,0.6-3.4,0.9-5,0.8c-1.7-0.1-3.2-0.4-4.6-1.1c-1.4-0.7-2.7-1.6-3.8-2.8c-1.1-1.2-2-2.7-2.6-4.4
			c-0.6-1.7-0.9-3.4-0.8-5c0.1-1.6,0.4-3.2,1.1-4.6s1.6-2.7,2.8-3.8c1.2-1.1,2.7-2,4.4-2.6s3.4-0.9,5-0.8c1.7,0.1,3.2,0.4,4.6,1.1
			s2.7,1.6,3.8,2.8C114.8,322.4,115.7,323.8,116.3,325.5z M113.8,326.4c-0.5-1.3-1.2-2.4-2-3.3c-0.9-0.9-1.9-1.6-3-2.1
			c-1.1-0.5-2.3-0.7-3.6-0.7c-1.3,0-2.6,0.2-3.9,0.7c-1.3,0.5-2.4,1.1-3.4,2c-1,0.8-1.7,1.8-2.3,2.9c-0.6,1.1-0.9,2.3-1,3.5
			c-0.1,1.3,0.1,2.5,0.6,3.9c0.5,1.3,1.2,2.4,2,3.3c0.9,0.9,1.9,1.6,3,2.1c1.1,0.5,2.3,0.7,3.6,0.7c1.3,0,2.6-0.2,3.9-0.7
			c1.3-0.5,2.4-1.1,3.4-2c1-0.8,1.7-1.8,2.3-2.9c0.6-1.1,0.9-2.3,1-3.5C114.5,329,114.3,327.7,113.8,326.4z"/>
	</g>
	<g class="st0">
		<path class="st1" d="M87.3,315.4l-0.8-3.5l16.4-17.7l0-0.1l-19.3,4.2l-0.6-2.8l23.3-5l0.8,3.5l-16.4,17.7l0,0.1l19.3-4.2l0.6,2.8
			L87.3,315.4z"/>
	</g>
	<g class="st0">
		<path class="st1" d="M81.2,279.7l-0.2-2.6l22.9-12.1l0.3,3.3l-5.6,2.9l1,11.9l6,1.9l0.3,3.2L81.2,279.7z M84.7,278.1L84.7,278.1
			l12.1,4l-0.8-9.7L84.7,278.1z"/>
	</g>
</g>
<circle class="st2" cx="295.7" cy="260" r="238"/>
<path class="st1" d="M295.7,97.8c-89.6,0-162.2,72.6-162.2,162.2s72.6,162.2,162.2,162.2S457.9,349.6,457.9,260
	S385.3,97.8,295.7,97.8z M263.1,318.4c-13.7,0-24.7-11.1-24.7-24.7s11.1-24.7,24.7-24.7c13.7,0,24.7,11.1,24.7,24.7
	S276.7,318.4,263.1,318.4z M263.1,251c-13.7,0-24.7-11.1-24.7-24.7c0-13.7,11.1-24.7,24.7-24.7c13.7,0,24.7,11.1,24.7,24.7
	C287.8,239.9,276.7,251,263.1,251z M328.3,318.4c-13.7,0-24.7-11.1-24.7-24.7s11.1-24.7,24.7-24.7s24.7,11,24.7,24.7
	S342,318.4,328.3,318.4z M328.3,251c-13.7,0-24.7-11.1-24.7-24.7c0-13.7,11.1-24.7,24.7-24.7s24.7,11.1,24.7,24.7S342,251,328.3,251
	z"/>
</svg>
